<?xml version="1.0" standalone="no"?>
<!DOCTYPE svg PUBLIC "-//W3C//DTD SVG 20010904//EN"
 "http://www.w3.org/TR/2001/REC-SVG-20010904/DTD/svg10.dtd">
<svg version="1.0" xmlns="http://www.w3.org/2000/svg"
 width="512.000000pt" height="512.000000pt" viewBox="0 0 512.000000 512.000000"
 preserveAspectRatio="xMidYMid meet">
<metadata>
Created by potrace 1.14, written by Peter Selinger 2001-2017
</metadata>
<g transform="translate(0.000000,512.000000) scale(0.100000,-0.100000)"
fill="#000000" stroke="none">
<path d="M1249 3824 c-18 -20 -88 -81 -154 -137 -158 -132 -190 -162 -235
-222 -80 -107 -110 -200 -110 -337 0 -187 42 -273 245 -513 101 -119 136 -192
143 -301 4 -76 3 -86 -21 -127 -26 -43 -89 -107 -107 -107 -4 0 -51 40 -104
90 -52 49 -99 90 -104 90 -11 0 -322 -271 -322 -280 0 -4 15 -24 34 -46 l35
-39 65 65 66 65 99 -99 100 -99 78 73 c43 40 119 106 168 145 189 151 243 232
252 374 4 57 1 101 -7 127 -21 65 -80 175 -128 237 -36 47 -42 61 -31 68 8 5
61 33 118 62 96 48 109 52 175 52 61 0 82 -5 141 -34 103 -51 218 -169 273
-281 66 -133 85 -227 79 -390 -5 -154 -23 -225 -84 -330 -40 -68 -161 -196
-230 -243 l-41 -29 -79 56 c-119 83 -162 99 -253 94 -55 -4 -89 -12 -127 -31
-51 -27 -215 -174 -255 -229 l-21 -30 31 -31 31 -30 41 37 c154 139 239 130
423 -44 l94 -90 61 75 c34 40 123 126 199 190 191 162 305 285 372 400 13 22
40 83 60 135 l36 95 -1 160 c-1 147 -3 167 -28 240 -79 231 -279 427 -542 531
-82 33 -95 35 -112 23 -11 -8 -52 -39 -93 -70 -77 -58 -142 -98 -271 -167
l-76 -41 -36 39 c-40 44 -75 110 -101 188 -26 80 -18 200 17 272 27 55 127
165 159 175 10 4 48 -16 99 -49 109 -74 161 -90 264 -84 101 7 165 36 249 117
55 52 147 165 147 179 0 4 -16 18 -35 31 l-35 24 -42 -48 c-53 -60 -110 -85
-195 -85 -55 0 -78 6 -139 35 -40 19 -97 57 -127 85 -30 27 -59 50 -64 50 -5
0 -25 -16 -44 -36z"/>
<path d="M2860 3850 c-91 -19 -184 -83 -240 -164 -50 -73 -71 -142 -77 -249
-5 -84 -3 -105 17 -159 30 -83 72 -131 149 -170 59 -30 74 -33 173 -36 l108
-4 0 34 c0 73 -3 75 -98 80 -101 5 -153 31 -193 95 -21 33 -24 50 -23 123 0
72 4 91 26 128 14 23 45 57 69 75 42 31 47 32 139 32 115 -1 155 -17 360 -149
181 -115 251 -139 398 -134 92 3 115 7 167 31 120 56 215 186 240 328 6 35 5
37 -34 53 -23 9 -45 16 -50 16 -4 0 -15 -26 -24 -59 -17 -61 -63 -130 -110
-165 -18 -14 -47 -21 -90 -24 -82 -5 -145 19 -278 107 -224 147 -261 167 -374
202 -62 20 -186 24 -255 9z"/>
<path d="M3685 3209 c-203 -84 -276 -289 -186 -520 16 -42 75 -157 131 -257
56 -100 118 -223 137 -274 94 -250 29 -475 -167 -579 -38 -20 -59 -24 -140
-24 -79 0 -102 4 -137 22 -62 34 -130 106 -221 234 -83 119 -144 184 -203 216
-26 14 -55 18 -124 18 -83 -1 -95 -3 -147 -34 -32 -17 -74 -51 -94 -74 -33
-38 -94 -145 -94 -164 0 -9 56 -43 70 -43 5 0 13 15 20 34 6 18 27 50 47 70
29 29 44 36 76 36 57 0 88 -28 176 -159 101 -151 181 -226 281 -265 63 -25 92
-30 194 -34 191 -7 313 29 474 141 121 85 228 241 267 392 20 78 20 226 -1
296 -26 85 -92 213 -188 359 -124 188 -160 266 -164 356 -7 123 42 178 153
172 58 -4 95 -20 172 -74 21 -15 23 -14 49 26 l28 42 -25 19 c-13 11 -53 34
-88 51 -56 28 -76 33 -155 35 -74 3 -100 -1 -141 -18z"/>
</g>
</svg>
